<svg xmlns="http://www.w3.org/2000/svg" width="430" height="431" fill="none" viewBox="0 0 430 431"><path stroke="#08a88a" stroke-linecap="round" stroke-linejoin="round" stroke-miterlimit="14.96" stroke-width="12" d="M83.246 268.51c9.683 0 17.5 7.817 17.5 17.5s-7.817 17.5-17.5 17.5-17.5-7.816-17.5-17.5c.117-9.683 7.933-17.5 17.5-17.5"/><circle cx="189.317" cy="271.01" r="7.5" fill="#08a88a"/><circle cx="219.317" cy="271.01" r="7.5" fill="#08a88a"/><circle cx="249.317" cy="271.01" r="7.5" fill="#08a88a"/><circle cx="279.317" cy="271.01" r="7.5" fill="#08a88a"/><circle cx="309.317" cy="271.01" r="7.5" fill="#08a88a"/><circle cx="339.317" cy="271.01" r="7.5" fill="#08a88a"/><circle cx="369.317" cy="271.01" r="7.5" fill="#08a88a"/><circle cx="189.317" cy="301.01" r="7.5" fill="#08a88a"/><circle cx="219.317" cy="301.01" r="7.5" fill="#08a88a"/><circle cx="249.317" cy="301.01" r="7.5" fill="#08a88a"/><circle cx="279.317" cy="301.01" r="7.5" fill="#08a88a"/><circle cx="309.317" cy="301.01" r="7.5" fill="#08a88a"/><circle cx="339.317" cy="301.01" r="7.5" fill="#08a88a"/><circle cx="369.317" cy="301.01" r="7.5" fill="#08a88a"/><path stroke="#121331" stroke-linejoin="round" stroke-width="12" d="M30 260.323c0-11.046 8.954-20 20-20h330c11.046 0 20 8.954 20 20v51.37c0 11.046-8.954 20-20 20H50c-11.046 0-20-8.954-20-20z"/><path stroke="#121331" stroke-linejoin="round" stroke-width="12" d="m31.049 253.918 49.983-141.21a20 20 0 0 1 18.854-13.327h230.339a20 20 0 0 1 18.859 13.34l49.869 141.197"/></svg>